D:\school\WTK\thesis\model\3dpredictsim\Results\debug_batch\Pog_s1_tmt_bCst_d00_k500_ig24_pas_GRF.mot
nRows=20
nColumns=19

name D:\school\WTK\thesis\model\3dpredictsim\Results\debug_batch\Pog_s1_tmt_bCst_d00_k500_ig24_pas_GRF.mot
datacolumns 19
datarows 20
range 0.5650122773 0.7797169427
endheader
time 	ground_force_vx	ground_force_vy	ground_force_vz	ground_force_px	ground_force_py	ground_force_pz	1_ground_force_vx	1_ground_force_vy	1_ground_force_vz	1_ground_force_px	1_ground_force_py	1_ground_force_pz	ground_torque_x	ground_torque_y	ground_torque_z	1_ground_torque_x	1_ground_torque_y	1_ground_torque_z
        0.5650122773	       96.9744848524	      460.0672313264	        3.3974453950	        0.3814754209	        0.0000000000	        0.0288322741	      -66.0176209611	       57.9153758430	      -31.4071232367	        0.8790927465	        0.0000000000	       -0.0376113025	        0.0000000000	        0.0000000000	        0.0000000000	        0.0000000000	        0.0000000000	        0.0000000000	
        0.5763125228	       75.7635067341	      373.7987945189	       10.3531046835	        0.3861330882	        0.0000000000	        0.0271624764	     -110.9040759480	      137.8162906893	      -83.3071410674	        0.8858717456	        0.0000000000	       -0.0349864956	        0.0000000000	        0.0000000000	        0.0000000000	        0.0000000000	        0.0000000000	        0.0000000000	
        0.5876127684	       47.3781275872	      269.7882380483	       11.5085201970	        0.3943649468	        0.0000000000	        0.0233979408	      -51.4436496917	      294.3226095355	      -35.6224009504	        0.8914144917	        0.0000000000	       -0.0322026299	        0.0000000000	        0.0000000000	        0.0000000000	        0.0000000000	        0.0000000000	        0.0000000000	
        0.5989130139	       19.5831478185	      169.6170437069	        8.2490950196	        0.4095913925	        0.0000000000	        0.0152063571	      -55.9526696941	      486.7548450851	       -3.9462272742	        0.8961378873	        0.0000000000	       -0.0324349889	        0.0000000000	        0.0000000000	        0.0000000000	        0.0000000000	        0.0000000000	        0.0000000000	
        0.6102132595	        1.8749727897	      126.6257018739	        9.3866819898	        0.4149098511	        0.0000000000	        0.0119584793	      -93.6146561171	      720.3559415918	        9.5957796254	        0.9051971101	        0.0000000000	       -0.0349351317	        0.0000000000	        0.0000000000	        0.0000000000	        0.0000000000	        0.0000000000	        0.0000000000	
        0.6215135050	       -1.5507020134	       84.4145058390	        8.5145983310	        0.4154161248	        0.0000000000	        0.0120068577	     -118.2258419092	      866.1287832962	       14.5400909577	        0.9112814293	        0.0000000000	       -0.0365663300	        0.0000000000	        0.0000000000	        0.0000000000	        0.0000000000	        0.0000000000	        0.0000000000	
        0.6328137506	       -7.7563618329	       35.4014001189	        5.5811932386	        0.4151832155	        0.0000000000	        0.0120858067	     -125.0800433238	      909.9853893238	       14.9584459448	        0.9152318666	        0.0000000000	       -0.0374817795	        0.0000000000	        0.0000000000	        0.0000000000	        0.0000000000	        0.0000000000	        0.0000000000	
        0.6441139961	        0.0806975517	       -0.0812116832	       -0.0014962644	        0.0000000000	        0.0000000000	        0.0000000000	     -119.0531544607	      894.5898036935	       14.7748383369	        0.9184652504	        0.0000000000	       -0.0379638604	        0.0000000000	        0.0000000000	        0.0000000000	        0.0000000000	        0.0000000000	        0.0000000000	
        0.6554142417	        0.0000476500	       -0.0000394261	        0.0000030123	        0.0000000000	        0.0000000000	        0.0000000000	     -106.8336443023	      855.2835848302	       15.2495611316	        0.9218010303	        0.0000000000	       -0.0381378910	        0.0000000000	        0.0000000000	        0.0000000000	        0.0000000000	        0.0000000000	        0.0000000000	
        0.6667144872	        0.0000234434	       -0.0000169471	        0.0000018659	        0.0000000000	        0.0000000000	        0.0000000000	      -92.4132381813	      805.1818245672	       15.0075861278	        0.9252152699	        0.0000000000	       -0.0381798537	        0.0000000000	        0.0000000000	        0.0000000000	        0.0000000000	        0.0000000000	        0.0000000000	
        0.6780147327	        0.0002620906	       -0.0001697316	        0.0000229279	        0.0000000000	        0.0000000000	        0.0000000000	      -80.4800589612	      760.0642988496	       14.9258553729	        0.9291749779	        0.0000000000	       -0.0380989093	        0.0000000000	        0.0000000000	        0.0000000000	        0.0000000000	        0.0000000000	        0.0000000000	
        0.6893149783	        0.0053720187	       -0.0031865213	        0.0004937883	        0.0000000000	        0.0000000000	        0.0000000000	      -69.5868892491	      721.7985694983	       15.2449342651	        0.9334403829	        0.0000000000	       -0.0379282992	        0.0000000000	        0.0000000000	        0.0000000000	        0.0000000000	        0.0000000000	        0.0000000000	
        0.7006152238	       -0.0240762493	        0.0132837398	       -0.0023072541	        0.0000000000	        0.0000000000	        0.0000000000	      -59.3106225110	      687.5023980222	       16.0843997806	        0.9376328461	        0.0000000000	       -0.0377799179	        0.0000000000	        0.0000000000	        0.0000000000	        0.0000000000	        0.0000000000	        0.0000000000	
        0.7119154694	       -0.0163450643	        0.0084897123	       -0.0016335386	        0.0000000000	        0.0000000000	        0.0000000000	      -49.7293111686	      657.6041214235	       17.1438578593	        0.9418094454	        0.0000000000	       -0.0376859137	        0.0000000000	        0.0000000000	        0.0000000000	        0.0000000000	        0.0000000000	        0.0000000000	
        0.7232157149	       -0.0108502373	        0.0053526434	       -0.0011319902	        0.0000000000	        0.0000000000	        0.0000000000	      -41.7663874618	      632.9542068121	       18.1766627076	        0.9461569888	        0.0000000000	       -0.0376337801	        0.0000000000	        0.0000000000	        0.0000000000	        0.0000000000	        0.0000000000	        0.0000000000	
        0.7345159605	       -0.0092459826	        0.0043643647	       -0.0010035305	        0.0000000000	        0.0000000000	        0.0000000000	      -35.2028054519	      613.6160771216	       19.0804216281	        0.9505951224	        0.0000000000	       -0.0376057392	        0.0000000000	        0.0000000000	        0.0000000000	        0.0000000000	        0.0000000000	        0.0000000000	
        0.7458162060	       -0.0105924992	        0.0048107753	       -0.0011896725	        0.0000000000	        0.0000000000	        0.0000000000	      -29.6361068550	      598.9034706686	       19.6535218147	        0.9551720297	        0.0000000000	       -0.0375888358	        0.0000000000	        0.0000000000	        0.0000000000	        0.0000000000	        0.0000000000	        0.0000000000	
        0.7571164516	       -0.0158338819	        0.0069516775	       -0.0018280971	        0.0000000000	        0.0000000000	        0.0000000000	      -25.1937642441	      588.6233616177	       19.9046733509	        0.9600578429	        0.0000000000	       -0.0375545066	        0.0000000000	        0.0000000000	        0.0000000000	        0.0000000000	        0.0000000000	        0.0000000000	
        0.7684166971	       -0.0289662210	        0.0123465375	       -0.0034119410	        0.0000000000	        0.0000000000	        0.0000000000	      -21.8941615712	      582.4819027374	       19.8844256761	        0.9653670732	        0.0000000000	       -0.0374731450	        0.0000000000	        0.0000000000	        0.0000000000	        0.0000000000	        0.0000000000	        0.0000000000	
        0.7797169427	       -0.0598374148	        0.0248591976	       -0.0071392373	        0.0000000000	        0.0000000000	        0.0000000000	      -19.9776028078	      579.6382488311	       19.5952933119	        0.9709783043	        0.0000000000	       -0.0373335779	        0.0000000000	        0.0000000000	        0.0000000000	        0.0000000000	        0.0000000000	        0.0000000000	
